<svg width="19" height="19" viewBox="0 0 19 19" fill="none" xmlns="http://www.w3.org/2000/svg">
<path d="M9.92091 4.41589C7.34898 4.41589 5.27331 6.49417 5.27331 9.06934C5.27331 11.6445 7.34898 13.7228 9.92091 13.7228C12.4928 13.7228 14.5685 11.6445 14.5685 9.06934C14.5685 6.49417 12.4928 4.41589 9.92091 4.41589ZM9.92091 12.0937C8.25765 12.0937 6.90031 10.7347 6.90031 9.06934C6.90031 7.40399 8.25765 6.04494 9.92091 6.04494C11.5842 6.04494 12.9415 7.40399 12.9415 9.06934C12.9415 10.7347 11.5842 12.0937 9.92091 12.0937ZM14.7588 3.14079C14.1584 3.14079 13.6734 3.62632 13.6734 4.22757C13.6734 4.82882 14.1584 5.31436 14.7588 5.31436C15.3593 5.31436 15.8443 4.83109 15.8443 4.22757C15.8444 4.0848 15.8165 3.9434 15.762 3.81147C15.7075 3.67953 15.6276 3.55965 15.5268 3.4587C15.4259 3.35775 15.3062 3.2777 15.1744 3.22315C15.0427 3.1686 14.9014 3.14061 14.7588 3.14079ZM18.9804 9.06934C18.9804 7.81692 18.9918 6.57585 18.9215 5.32571C18.8513 3.87363 18.5204 2.58491 17.4599 1.52308C16.3972 0.458986 15.1123 0.13 13.6621 0.0596654C12.4113 -0.0106695 11.1717 0.000674861 9.92317 0.000674861C8.67233 0.000674861 7.43282 -0.0106695 6.18425 0.0596654C4.734 0.13 3.4469 0.461255 2.3864 1.52308C1.32364 2.58718 0.995071 3.87363 0.924825 5.32571C0.854578 6.57812 0.865908 7.81919 0.865908 9.06934C0.865908 10.3195 0.854578 11.5628 0.924825 12.813C0.995071 14.265 1.32591 15.5538 2.3864 16.6156C3.44917 17.6797 4.734 18.0087 6.18425 18.079C7.43509 18.1493 8.6746 18.138 9.92317 18.138C11.174 18.138 12.4135 18.1493 13.6621 18.079C15.1123 18.0087 16.3994 17.6774 17.4599 16.6156C18.5227 15.5515 18.8513 14.265 18.9215 12.813C18.994 11.5628 18.9804 10.3218 18.9804 9.06934ZM16.9863 14.4193C16.8209 14.8323 16.6215 15.1408 16.302 15.4585C15.9825 15.7784 15.6766 15.978 15.2642 16.1437C14.0722 16.6179 11.242 16.5112 9.92091 16.5112C8.59982 16.5112 5.7673 16.6179 4.57538 16.1459C4.16296 15.9803 3.85478 15.7806 3.53754 15.4607C3.21803 15.1408 3.01862 14.8345 2.8532 14.4216C2.38187 13.2259 2.48838 10.3921 2.48838 9.06934C2.48838 7.74659 2.38187 4.9105 2.8532 3.71708C3.01862 3.30415 3.21803 2.99558 3.53754 2.67794C3.85705 2.3603 4.16296 2.15837 4.57538 1.99274C5.7673 1.52082 8.59982 1.62745 9.92091 1.62745C11.242 1.62745 14.0745 1.52082 15.2664 1.99274C15.6789 2.15837 15.987 2.35803 16.3043 2.67794C16.6238 2.99785 16.8232 3.30415 16.9886 3.71708C17.4599 4.9105 17.3534 7.74659 17.3534 9.06934C17.3534 10.3921 17.4599 13.2259 16.9863 14.4193Z" fill="#2D2D2D"/>
</svg>
