<svg width="15" height="11" viewBox="0 0 15 11" fill="none" xmlns="http://www.w3.org/2000/svg">
<path d="M14.2266 3.47266C13.5977 3.96484 12.8047 4.56641 10.0156 6.58984C9.46875 7 8.45703 7.90234 7.5 7.90234C6.51562 7.90234 5.53125 7 4.95703 6.58984C2.16797 4.56641 1.375 3.96484 0.746094 3.47266C0.636719 3.39062 0.5 3.47266 0.5 3.60938V9.1875C0.5 9.92578 1.07422 10.5 1.8125 10.5H13.1875C13.8984 10.5 14.5 9.92578 14.5 9.1875V3.60938C14.5 3.47266 14.3359 3.39062 14.2266 3.47266ZM7.5 7C8.12891 7.02734 9.03125 6.20703 9.49609 5.87891C13.1328 3.25391 13.4062 3.00781 14.2266 2.35156C14.3906 2.24219 14.5 2.05078 14.5 1.83203V1.3125C14.5 0.601562 13.8984 0 13.1875 0H1.8125C1.07422 0 0.5 0.601562 0.5 1.3125V1.83203C0.5 2.05078 0.582031 2.24219 0.746094 2.35156C1.56641 3.00781 1.83984 3.25391 5.47656 5.87891C5.94141 6.20703 6.84375 7.02734 7.5 7Z" fill="#AEAEAE"/>
</svg>
