<svg width="15" height="15" viewBox="0 0 15 15" fill="none" xmlns="http://www.w3.org/2000/svg">
<path d="M13.9805 0.933594L11.1367 0.277344C10.8359 0.195312 10.5078 0.359375 10.3711 0.660156L9.05859 3.72266C8.94922 3.99609 9.03125 4.29688 9.25 4.48828L10.918 5.85547C9.93359 7.93359 8.21094 9.68359 6.07812 10.6953L4.71094 9.02734C4.51953 8.80859 4.21875 8.72656 3.94531 8.83594L0.882812 10.1484C0.582031 10.2852 0.445312 10.6133 0.5 10.9141L1.15625 13.7578C1.23828 14.0586 1.48438 14.25 1.8125 14.25C8.8125 14.25 14.5 8.58984 14.5 1.5625C14.5 1.26172 14.2812 1.01562 13.9805 0.933594Z" fill="#AEAEAE"/>
</svg>
