<svg width="15" height="15" viewBox="0 0 15 15" fill="none" xmlns="http://www.w3.org/2000/svg">
<path d="M12.6406 2.11719C12.2852 1.81641 10.8633 0.777344 7.74609 0.777344C7.74609 0.777344 4.05469 0.558594 2.25 2.19922C1.23828 3.21094 0.882812 4.66016 0.855469 6.49219C0.828125 8.29688 0.773438 11.7148 4.05469 12.6445V14.0391C4.05469 14.0391 4.02734 14.6133 4.41016 14.75C4.875 14.8867 5.12109 14.4492 5.55859 13.9844C5.80469 13.7109 6.13281 13.3555 6.37891 13.0547C8.62109 13.2461 10.3438 12.8086 10.5625 12.7539C11 12.5898 13.5703 12.2617 13.9805 8.87109C14.418 5.34375 13.7891 3.12891 12.6406 2.11719ZM12.9961 8.59766C12.668 11.4414 10.5625 11.6328 10.1797 11.7695C10.0156 11.7969 8.51172 12.1797 6.59766 12.0703C6.59766 12.0703 5.17578 13.7656 4.73828 14.2305C4.60156 14.3672 4.4375 14.3672 4.4375 14.0664C4.4375 13.875 4.4375 11.7148 4.4375 11.7148C1.67578 10.9492 1.83984 8.05078 1.86719 6.54688C1.89453 5.01562 2.16797 3.78516 3.01562 2.9375C4.54688 1.54297 7.69141 1.76172 7.69141 1.76172C10.3438 1.76172 11.6016 2.58203 11.9023 2.82812C12.8867 3.67578 13.3789 5.67188 12.9961 8.59766ZM9.19531 6.41016C9.16797 5.61719 8.75781 5.17969 7.99219 5.125C7.74609 5.125 7.71875 5.48047 7.96484 5.48047C8.53906 5.53516 8.8125 5.80859 8.86719 6.41016C8.86719 6.65625 9.22266 6.62891 9.19531 6.41016ZM9.76953 6.71094C9.76953 6.92969 10.125 6.95703 10.125 6.71094C10.1523 5.39844 9.30469 4.30469 7.71875 4.19531C7.47266 4.16797 7.44531 4.52344 7.69141 4.55078C9.05859 4.63281 9.79688 5.5625 9.76953 6.71094ZM11.0547 7.06641C11.0273 4.6875 9.41406 3.29297 7.39062 3.26562C7.17188 3.26562 7.17188 3.62109 7.39062 3.62109C9.19531 3.64844 10.6719 4.85156 10.6992 7.06641C10.6992 7.3125 11.0547 7.3125 11.0547 7.06641ZM10.7266 9.74609C10.8633 9.5 10.8359 9.28125 10.6445 9.11719C10.2891 8.78906 9.79688 8.43359 9.38672 8.21484C9.08594 8.05078 8.78516 8.16016 8.64844 8.32422L8.40234 8.65234C8.26562 8.81641 8.01953 8.78906 8.01953 8.78906C6.1875 8.32422 5.69531 6.49219 5.69531 6.49219C5.69531 6.49219 5.69531 6.24609 5.85938 6.10938L6.1875 5.83594C6.35156 5.69922 6.43359 5.39844 6.26953 5.09766C6.1875 4.93359 5.99609 4.63281 5.85938 4.46875C5.72266 4.25 5.36719 3.86719 5.36719 3.86719C5.23047 3.64844 4.98438 3.62109 4.73828 3.75781H4.71094C4.19141 4.03125 3.61719 4.60547 3.80859 5.15234C3.80859 5.15234 3.94531 5.64453 4.51953 6.68359C4.79297 7.20312 5.09375 7.61328 5.36719 7.96875C5.66797 8.35156 6.07812 8.76172 6.51562 9.11719C7.39062 9.80078 8.73047 10.5117 9.30469 10.6758H9.33203C9.87891 10.8672 10.4531 10.293 10.7266 9.77344V9.74609Z" fill="#212121"/>
</svg>
