<svg width="13" height="13" viewBox="0 0 13 13" fill="none" xmlns="http://www.w3.org/2000/svg">
<path d="M10.7656 2.42969C9.64453 1.28125 8.11328 0.625 6.47266 0.625C3.13672 0.625 0.402344 3.35938 0.402344 6.69531C0.402344 7.78906 0.703125 8.82812 1.22266 9.73047L0.375 12.875L3.57422 12.0547C4.47656 12.5195 5.46094 12.793 6.47266 12.793C9.83594 12.793 12.625 10.0586 12.625 6.72266C12.625 5.08203 11.9141 3.57812 10.7656 2.42969ZM6.47266 11.7539C5.57031 11.7539 4.69531 11.5078 3.90234 11.043L3.73828 10.9336L1.82422 11.4531L2.34375 9.59375L2.20703 9.40234C1.71484 8.58203 1.44141 7.65234 1.44141 6.69531C1.44141 3.93359 3.71094 1.66406 6.5 1.66406C7.83984 1.66406 9.09766 2.18359 10.0547 3.14062C11.0117 4.09766 11.5859 5.35547 11.5859 6.72266C11.5859 9.48438 9.26172 11.7539 6.47266 11.7539ZM9.26172 7.98047C9.09766 7.89844 8.35938 7.54297 8.22266 7.48828C8.08594 7.43359 7.97656 7.40625 7.86719 7.57031C7.78516 7.70703 7.48438 8.0625 7.40234 8.17188C7.29297 8.25391 7.21094 8.28125 7.07422 8.19922C6.17188 7.76172 5.59766 7.40625 4.99609 6.39453C4.83203 6.12109 5.16016 6.14844 5.43359 5.57422C5.48828 5.46484 5.46094 5.38281 5.43359 5.30078C5.40625 5.21875 5.07812 4.48047 4.96875 4.17969C4.83203 3.87891 4.72266 3.90625 4.61328 3.90625C4.53125 3.90625 4.42188 3.90625 4.33984 3.90625C4.23047 3.90625 4.06641 3.93359 3.92969 4.09766C3.79297 4.26172 3.41016 4.61719 3.41016 5.35547C3.41016 6.12109 3.92969 6.83203 4.01172 6.94141C4.09375 7.02344 5.07812 8.55469 6.60938 9.21094C7.56641 9.64844 7.94922 9.67578 8.44141 9.59375C8.71484 9.56641 9.31641 9.23828 9.45312 8.88281C9.58984 8.52734 9.58984 8.22656 9.53516 8.17188C9.50781 8.08984 9.39844 8.0625 9.26172 7.98047Z" fill="#212121"/>
</svg>
