<svg width="148" height="87" viewBox="0 0 148 87" fill="none" xmlns="http://www.w3.org/2000/svg">
<rect x="0.5" y="0.5" width="147" height="86" fill="white" stroke="#CBC4C4"/>
<path d="M25.8379 55.167H42.6836V59H21.126V23.4531H25.8379V55.167ZM46.126 45.5479C46.126 42.96 46.6305 40.6325 47.6396 38.5654C48.665 36.4984 50.0811 34.9033 51.8877 33.7803C53.7106 32.6572 55.7858 32.0957 58.1133 32.0957C61.7103 32.0957 64.6156 33.3408 66.8291 35.8311C69.0589 38.3213 70.1738 41.6335 70.1738 45.7676V46.085C70.1738 48.6566 69.6774 50.9678 68.6846 53.0186C67.708 55.0531 66.3001 56.64 64.4609 57.7793C62.638 58.9186 60.5384 59.4883 58.1621 59.4883C54.5814 59.4883 51.6761 58.2432 49.4463 55.7529C47.2327 53.2627 46.126 49.9668 46.126 45.8652V45.5479ZM50.667 46.085C50.667 49.0146 51.3424 51.3665 52.6934 53.1406C54.0605 54.9147 55.8835 55.8018 58.1621 55.8018C60.457 55.8018 62.2799 54.9066 63.6309 53.1162C64.9818 51.3096 65.6572 48.7868 65.6572 45.5479C65.6572 42.6507 64.9655 40.307 63.582 38.5166C62.2148 36.71 60.3919 35.8066 58.1133 35.8066C55.8835 35.8066 54.085 36.6937 52.7178 38.4678C51.3506 40.2419 50.667 42.7809 50.667 46.085ZM74.7637 45.5723C74.7637 41.4544 75.7158 38.1829 77.6201 35.7578C79.5244 33.3164 82.0472 32.0957 85.1885 32.0957C88.4111 32.0957 90.9258 33.235 92.7324 35.5137L92.9521 32.584H97.0781V58.3652C97.0781 61.7832 96.0609 64.4769 94.0264 66.4463C92.0081 68.4157 89.29 69.4004 85.8721 69.4004C83.9678 69.4004 82.1042 68.9935 80.2812 68.1797C78.4583 67.3659 77.0667 66.251 76.1064 64.835L78.4502 62.125C80.387 64.5176 82.7552 65.7139 85.5547 65.7139C87.752 65.7139 89.4609 65.0954 90.6816 63.8584C91.9186 62.6214 92.5371 60.8799 92.5371 58.6338V56.3633C90.7305 58.4466 88.2646 59.4883 85.1396 59.4883C82.0472 59.4883 79.5407 58.2432 77.6201 55.7529C75.7158 53.2627 74.7637 49.8691 74.7637 45.5723ZM79.3047 46.085C79.3047 49.0635 79.915 51.4072 81.1357 53.1162C82.3564 54.8089 84.0654 55.6553 86.2627 55.6553C89.111 55.6553 91.2025 54.3613 92.5371 51.7734V39.7129C91.1536 37.1901 89.0785 35.9287 86.3115 35.9287C84.1143 35.9287 82.3971 36.7832 81.1602 38.4922C79.9232 40.2012 79.3047 42.7321 79.3047 46.085ZM102.718 45.5479C102.718 42.96 103.222 40.6325 104.231 38.5654C105.257 36.4984 106.673 34.9033 108.479 33.7803C110.302 32.6572 112.378 32.0957 114.705 32.0957C118.302 32.0957 121.207 33.3408 123.421 35.8311C125.651 38.3213 126.766 41.6335 126.766 45.7676V46.085C126.766 48.6566 126.269 50.9678 125.276 53.0186C124.3 55.0531 122.892 56.64 121.053 57.7793C119.23 58.9186 117.13 59.4883 114.754 59.4883C111.173 59.4883 108.268 58.2432 106.038 55.7529C103.825 53.2627 102.718 49.9668 102.718 45.8652V45.5479ZM107.259 46.085C107.259 49.0146 107.934 51.3665 109.285 53.1406C110.652 54.9147 112.475 55.8018 114.754 55.8018C117.049 55.8018 118.872 54.9066 120.223 53.1162C121.574 51.3096 122.249 48.7868 122.249 45.5479C122.249 42.6507 121.557 40.307 120.174 38.5166C118.807 36.71 116.984 35.8066 114.705 35.8066C112.475 35.8066 110.677 36.6937 109.31 38.4678C107.942 40.2419 107.259 42.7809 107.259 46.085Z" fill="black"/>
</svg>
