<svg width="14" height="15" viewBox="0 0 14 15" fill="none" xmlns="http://www.w3.org/2000/svg">
<path d="M13.4805 0.933594L10.6367 0.277344C10.3359 0.195312 10.0078 0.359375 9.87109 0.660156L8.55859 3.72266C8.44922 3.99609 8.53125 4.29688 8.75 4.48828L10.418 5.85547C9.43359 7.93359 7.71094 9.68359 5.57812 10.6953L4.21094 9.02734C4.01953 8.80859 3.71875 8.72656 3.44531 8.83594L0.382812 10.1484C0.0820312 10.2852 -0.0546875 10.6133 0 10.9141L0.65625 13.7578C0.738281 14.0586 0.984375 14.25 1.3125 14.25C8.3125 14.25 14 8.58984 14 1.5625C14 1.26172 13.7812 1.01562 13.4805 0.933594Z" fill="#AEAEAE"/>
</svg>
